<svg width="38" height="30" viewBox="0 0 38 30" fill="none" xmlns="http://www.w3.org/2000/svg">
<g filter="url(#filter0_d_5_220)">
<path d="M14.9608 20.8951L14.9527 20.8916L14.927 20.8776C14.7768 20.795 14.6279 20.7102 14.4802 20.6233C12.7043 19.568 11.0447 18.3284 9.52883 16.9249C6.84433 14.4201 4 10.7031 4 6.12508C4 2.70908 6.87467 8.27765e-05 10.3443 8.27765e-05C11.3089 -0.00464155 12.2621 0.208147 13.133 0.622622C14.004 1.0371 14.7703 1.6426 15.375 2.39408C15.9798 1.64244 16.7463 1.03685 17.6175 0.622368C18.4887 0.207886 19.4421 -0.00481723 20.4068 8.27765e-05C23.8753 8.27765e-05 26.75 2.70908 26.75 6.12508C26.75 10.7043 23.9057 14.4213 21.2212 16.9238C19.7054 18.3272 18.0457 19.5669 16.2698 20.6221C16.1221 20.7094 15.9732 20.7946 15.823 20.8776L15.7973 20.8916L15.7892 20.8963L15.7857 20.8974C15.6592 20.9644 15.5182 20.9995 15.375 20.9995C15.2318 20.9995 15.0908 20.9644 14.9643 20.8974L14.9608 20.8951Z" fill="white"/>
<path d="M25.8933 18.9649L29.0833 12.7316H26.8833V8.69823L23.5833 14.9316H25.8933V18.9649ZM26.3333 21.1649C25.3189 21.1649 24.3656 20.9724 23.4733 20.5874C22.5811 20.2024 21.805 19.6799 21.145 19.0199C20.485 18.3599 19.9625 17.5838 19.5775 16.6916C19.1925 15.7993 19 14.846 19 13.8316C19 12.8171 19.1925 11.8638 19.5775 10.9716C19.9625 10.0793 20.485 9.30323 21.145 8.64323C21.805 7.98323 22.5811 7.46073 23.4733 7.07573C24.3656 6.69073 25.3189 6.49823 26.3333 6.49823C27.3478 6.49823 28.3011 6.69073 29.1933 7.07573C30.0856 7.46073 30.8617 7.98323 31.5217 8.64323C32.1817 9.30323 32.7042 10.0793 33.0892 10.9716C33.4742 11.8638 33.6667 12.8171 33.6667 13.8316C33.6667 14.846 33.4742 15.7993 33.0892 16.6916C32.7042 17.5838 32.1817 18.3599 31.5217 19.0199C30.8617 19.6799 30.0856 20.2024 29.1933 20.5874C28.3011 20.9724 27.3478 21.1649 26.3333 21.1649Z" fill="#894189"/>
<path d="M26.2667 18.4982L29.1667 12.8315H27.1667V9.16486L24.1667 14.8315H26.2667V18.4982ZM26.6667 20.4982C25.7444 20.4982 24.8778 20.3232 24.0667 19.9732C23.2556 19.6232 22.55 19.1482 21.95 18.5482C21.35 17.9482 20.875 17.2426 20.525 16.4315C20.175 15.6204 20 14.7537 20 13.8315C20 12.9093 20.175 12.0426 20.525 11.2315C20.875 10.4204 21.35 9.71486 21.95 9.11486C22.55 8.51486 23.2556 8.03986 24.0667 7.68986C24.8778 7.33986 25.7444 7.16486 26.6667 7.16486C27.5889 7.16486 28.4556 7.33986 29.2667 7.68986C30.0778 8.03986 30.7833 8.51486 31.3833 9.11486C31.9833 9.71486 32.4583 10.4204 32.8083 11.2315C33.1583 12.0426 33.3333 12.9093 33.3333 13.8315C33.3333 14.7537 33.1583 15.6204 32.8083 16.4315C32.4583 17.2426 31.9833 17.9482 31.3833 18.5482C30.7833 19.1482 30.0778 19.6232 29.2667 19.9732C28.4556 20.3232 27.5889 20.4982 26.6667 20.4982Z" fill="white"/>
</g>
<defs>
<filter id="filter0_d_5_220" x="0" y="0" width="37.6667" height="29.1649" filterUnits="userSpaceOnUse" color-interpolation-filters="sRGB">
<feFlood flood-opacity="0" result="BackgroundImageFix"/>
<feColorMatrix in="SourceAlpha" type="matrix" values="0 0 0 0 0 0 0 0 0 0 0 0 0 0 0 0 0 0 127 0" result="hardAlpha"/>
<feOffset dy="4"/>
<feGaussianBlur stdDeviation="2"/>
<feComposite in2="hardAlpha" operator="out"/>
<feColorMatrix type="matrix" values="0 0 0 0 0 0 0 0 0 0 0 0 0 0 0 0 0 0 0.25 0"/>
<feBlend mode="normal" in2="BackgroundImageFix" result="effect1_dropShadow_5_220"/>
<feBlend mode="normal" in="SourceGraphic" in2="effect1_dropShadow_5_220" result="shape"/>
</filter>
</defs>
</svg>
